<svg xmlns="http://www.w3.org/2000/svg" viewBox="0 0 30.72 30.72"><defs><style>.cls-1{fill:#00623a;fill-rule:evenodd;}</style></defs><g id="Layer_2" data-name="Layer 2"><g id="GUIDE"><path class="cls-1" d="M15,0c-3.83,0-4.37,0-6,.09A11.39,11.39,0,0,0,5.3.81,7.38,7.38,0,0,0,2.58,2.58,7.38,7.38,0,0,0,.81,5.3,11.39,11.39,0,0,0,.09,9C0,10.67,0,11.19,0,15.36s0,4.69.09,6.33a11.39,11.39,0,0,0,.72,3.73,7.38,7.38,0,0,0,1.77,2.72A7.38,7.38,0,0,0,5.3,29.91,11.39,11.39,0,0,0,9,30.63c1.64.07,2.16.09,6.33.09s4.69,0,6.33-.09a11.39,11.39,0,0,0,3.73-.72,7.84,7.84,0,0,0,4.49-4.49,11.39,11.39,0,0,0,.72-3.73c.07-1.58.09-2.12.09-6V15c0-3.83,0-4.37-.09-6a11.39,11.39,0,0,0-.72-3.73,7.38,7.38,0,0,0-1.77-2.72A7.38,7.38,0,0,0,25.42.81,11.39,11.39,0,0,0,21.69.09C20.11,0,19.57,0,15.74,0ZM25.4,7.16a1.84,1.84,0,1,1-1.84-1.84A1.84,1.84,0,0,1,25.4,7.16Zm-10,13.32a5.12,5.12,0,1,1,5.12-5.12,5.12,5.12,0,0,1-5.12,5.12Zm0-13a7.89,7.89,0,1,1-7.89,7.89,7.89,7.89,0,0,1,7.89-7.89Zm0-4.7c4.1,0,4.59,0,6.21.09a8.57,8.57,0,0,1,2.85.53,4.53,4.53,0,0,1,1.76,1.15A4.53,4.53,0,0,1,27.33,6.3a8.57,8.57,0,0,1,.53,2.85c.08,1.62.09,2.11.09,6.21s0,4.59-.09,6.21a8.57,8.57,0,0,1-.53,2.85,5,5,0,0,1-2.91,2.91,8.57,8.57,0,0,1-2.85.53c-1.62.08-2.11.09-6.21.09s-4.59,0-6.21-.09a8.57,8.57,0,0,1-2.85-.53,4.62,4.62,0,0,1-1.76-1.14,4.64,4.64,0,0,1-1.15-1.77,8.57,8.57,0,0,1-.53-2.85c-.08-1.62-.09-2.11-.09-6.21s0-4.59.09-6.21A8.57,8.57,0,0,1,3.39,6.3,4.53,4.53,0,0,1,4.54,4.54,4.53,4.53,0,0,1,6.3,3.39a8.57,8.57,0,0,1,2.85-.53C10.77,2.78,11.26,2.77,15.36,2.77Z"/></g></g></svg>