<svg xmlns="http://www.w3.org/2000/svg" viewBox="0 0 159.89 215.91"><defs><style>.cls-1{fill:#00995e;}</style></defs><g id="Layer_2" data-name="Layer 2"><g id="BOARD"><path class="cls-1" d="M75.35,127.56c0-14.53,10.74-28.45,39.23-33.18-21.12,7.43-37,29.28-24.07,29.84,30.2,1.3,32.82-32.27,54.33-34.92C135.19,80.09,94.05,82,80.42,99c7-30.06,43.68-54.39,74.13-57-13.85-1-28.83.49-36.2,5.37C130,39,128.69,14.06,111.28,0,114.4,16.75,87,30.38,101.66,48.25c8.14-4.07,13.45-20.53,12-27.43,7.08,35.39-10.46,24.59-31.32,50.79-1.19-13.08-16.68-48-63.72-48,12,15.55,13.1,59,44.25,59,1.18-4.61,3.62-20-25.24-47.67C99.71,73.15,58,91,62.22,133.63A37,37,0,0,0,71,152.87,75.4,75.4,0,0,0,86.6,154.5c1.07,0,2.13,0,3.19-.07C81.33,147.56,75.35,137.69,75.35,127.56Z"/><path class="cls-1" d="M78.07,164.67c22.52-3.15,45.59-4.76,68.33-3.54,1.22.07,5.12.42,10.24,1a79.55,79.55,0,0,0,3.25-11.55c-27.19.18-54.26-5.17-81.82-1.57-22.53,3.15-45.59,4.76-68.34,3.54-1.17-.06-4.86-.4-9.73-.92a80,80,0,0,0,3.43,11.57C28.21,163.79,52.93,168,78.07,164.67Z"/><path class="cls-1" d="M143,186a79.86,79.86,0,0,0,6.93-9.84q-4.12.27-8.25.43c-23.15.93-46.28-1.49-69.18-4.48-21.62-2.57-41.93,3.12-63.21,3.34a82.93,82.93,0,0,0,6.33,9.28c22.75-.8,45.48,1.58,68,4.52C104,191.66,123.11,186.78,143,186Z"/><path class="cls-1" d="M78.07,196.69a393,393,0,0,1-45.91,3.86A81.67,81.67,0,0,0,132,197.08C114.12,195.82,96.2,194.32,78.07,196.69Z"/></g></g></svg>