<svg xmlns="http://www.w3.org/2000/svg" viewBox="0 0 30.72 21.15"><defs><style>.cls-1{fill:#00995e;fill-rule:evenodd;}</style></defs><g id="Layer_2" data-name="Layer 2"><g id="GUIDE"><path class="cls-1" d="M2.53,3.39a.6.6,0,0,1,.66-.66C3.44,2.73,13.4,9,14,9.4l1.56,1c.49-.33,1-.61,1.5-.95,1.05-.67,10.35-6.69,10.6-6.69a.61.61,0,0,1,.67.66c0,.45-.87.89-1.43,1.24-3.53,2.15-7.06,4.5-10.56,6.73-.2.14-.59.43-.89.38S5,5.19,3.15,4.1c-.28-.16-.62-.31-.62-.71ZM0,1.86V19.42a1.67,1.67,0,0,0,1.66,1.73h27.4a1.68,1.68,0,0,0,1.66-1.73V1.86A1.69,1.69,0,0,0,29.06,0H1.66A1.67,1.67,0,0,0,0,1.86Z"/></g></g></svg>