<svg xmlns="http://www.w3.org/2000/svg" viewBox="0 0 653.04 266.01"><defs><style>.cls-1{fill:#00995e;}.cls-2{fill:#5c5049;}.cls-3{fill:#7f695f;}.cls-4{fill:#00623a;}</style></defs><g id="Layer_2" data-name="Layer 2"><g id="BOARD"><path class="cls-1" d="M551.13,157.16c0-17.9,13.23-35,48.32-40.88-26,9.15-45.52,36.08-29.65,36.76,37.21,1.61,40.44-39.75,66.94-43-11.89-11.34-62.58-8.94-79.36,12,8.6-37,53.81-67,91.32-70.2-17.06-1.26-35.52.6-44.59,6.62C618.46,48,616.85,17.32,595.39,0c3.85,20.64-29.95,37.43-11.85,59.44,10-5,16.57-25.29,14.82-33.79,8.73,43.61-12.88,30.29-38.58,62.57-1.47-16.11-20.56-59.13-78.51-59.13,14.73,19.15,16.14,72.65,54.52,72.65,1.45-5.67,4.45-24.7-31.1-58.72,76.45,47.11,25.09,69.12,30.26,121.61a45.64,45.64,0,0,0,10.75,23.71,92.8,92.8,0,0,0,19.28,2c1.32,0,2.63,0,3.94-.09C558.49,181.8,551.13,169.64,551.13,157.16Z" transform="translate(-2.25)"/><path class="cls-2" d="M554.47,202.88c27.76-3.88,56.17-5.86,84.19-4.36,1.5.08,6.31.52,12.62,1.2a99.88,99.88,0,0,0,4-14.23c-33.51.22-66.86-6.37-100.82-1.94-27.75,3.88-56.17,5.86-84.19,4.36-1.45-.08-6-.49-12-1.13A100,100,0,0,0,462.51,201C493,201.8,523.5,206.92,554.47,202.88Z" transform="translate(-2.25)"/><path class="cls-3" d="M634.49,229.16A100.06,100.06,0,0,0,643,217c-3.39.22-6.78.39-10.17.53-28.52,1.14-57-1.84-85.24-5.53-26.63-3.16-51.65,3.85-77.87,4.13a101.46,101.46,0,0,0,7.8,11.43c28-1,56,2,83.77,5.56C586.36,236.14,610,230.13,634.49,229.16Z" transform="translate(-2.25)"/><path class="cls-2" d="M554.47,242.33a485.08,485.08,0,0,1-56.56,4.76,100.63,100.63,0,0,0,123-4.28C598.89,241.26,576.81,239.41,554.47,242.33Z" transform="translate(-2.25)"/><path class="cls-4" d="M41.61,144c0,9.63-7.13,15.09-14.58,15.93a52.83,52.83,0,0,1-6.48.32H14.06l-3,16.69H2.25l7.83-44.3h15a48.85,48.85,0,0,1,6.35.32C37.18,133.55,41.61,137.34,41.61,144Zm-9.38,1c0-3.21-1.73-4.82-4.23-5.2a32.26,32.26,0,0,0-3.92-.19H17.66L15.28,153.2H21.7a36,36,0,0,0,3.92-.19C29.34,152.43,32.23,149.92,32.23,145Z" transform="translate(-2.25)"/><path class="cls-4" d="M54.13,163.86c0,5.52,2.63,7.7,6.29,7.7a8.29,8.29,0,0,0,8.16-5.78h8.86c-2.76,8-9.57,12-17.85,12s-14.51-4.24-14.51-13.87c0-11.75,7.32-22.09,20-22.09,9.56,0,14.38,5.91,14.38,13.49a24.35,24.35,0,0,1-1.09,6.8H54.19Zm1-7.52H70.38a13.06,13.06,0,0,0,.06-1.47c0-4.24-2.25-6.81-6.29-6.81C59.52,148.06,56.63,151.59,55.16,156.34Z" transform="translate(-2.25)"/><path class="cls-4" d="M111.21,142.15l-1.28,7.13c-5.91-.58-11.3,1.67-13.16,11.94L94,176.89H85.14l6-34H100l-1.09,6.23,3.66-4.88a10.27,10.27,0,0,1,6.22-2.31A9.59,9.59,0,0,1,111.21,142.15Z" transform="translate(-2.25)"/><path class="cls-4" d="M167.78,150.18a34.38,34.38,0,0,1-.77,6.36l-3.59,20.35h-8.86l3.14-17.78a40.84,40.84,0,0,0,.71-6.17c0-3.14-1.61-4.88-4.62-4.88-3.6,0-7.13,4.37-8.35,11.11l-.07.19-3.08,17.53H133.5l3.08-17.78a37.26,37.26,0,0,0,.77-6.17c0-3.14-1.67-4.88-4.82-4.88-3.66,0-7,4.3-8.22,11.3l-3.08,17.53h-8.86l6-34.16h8.79l-.83,4.88,3.14-3.79a14.3,14.3,0,0,1,7.71-2c5.39,0,8.41,2.64,9.18,6.23l3.53-4a12.84,12.84,0,0,1,8-2.25C164.76,141.83,167.78,145.56,167.78,150.18Z" transform="translate(-2.25)"/><path class="cls-4" d="M206.63,150.89a37.68,37.68,0,0,1-.83,6.42l-1.93,10.91a65.24,65.24,0,0,0-.9,8.67H194.3l.2-5-2.25,3.41a14,14,0,0,1-8.67,2.5c-5.14,0-9.5-2.89-9.5-9,0-8.73,9-13.55,23.18-12.71l.06-.52a21.86,21.86,0,0,0,.39-3.66c0-2.11-1.16-3.85-4.31-3.85-4,0-6.22,2.06-7.12,5.78l-8.61.06c1.48-7.7,8.16-12.07,16.5-12.07C203.16,141.83,206.63,145.62,206.63,150.89Zm-10.91,13.42.51-2.89c-7.19-.77-12.84,1.35-12.84,6.23,0,2.63,1.8,3.91,4.49,3.91C191.09,171.56,195,168.8,195.72,164.31Z" transform="translate(-2.25)"/><path class="cls-4" d="M247.15,176.89H236.43l-8.93-13.8-3.72,3.27-1.87,10.53h-8.86l8.35-47.19h8.86l-5,28.44,16.44-15.41h10.66l-17.91,16Z" transform="translate(-2.25)"/><path class="cls-4" d="M285.29,176.89h-8.86l1-5.26-3.4,3.78a15.05,15.05,0,0,1-8.67,2.38c-6.93,0-10.34-3.6-10.34-8.8a33.68,33.68,0,0,1,.77-6.8l3.54-19.46h8.86l-3.28,17.92a33.22,33.22,0,0,0-.64,5.58c0,3.15,1.41,5.33,5.46,5.27,4.43-.07,8.34-3.79,10.08-13.29l2.69-15.48h8.8Z" transform="translate(-2.25)"/><path class="cls-4" d="M307.19,165.72a23.23,23.23,0,0,0-.45,3.4c0,2,1,2.38,3.53,2.19l-1,5.71a30.69,30.69,0,0,1-5.14.32c-4.36,0-6.67-1.22-6.67-4.75a36.58,36.58,0,0,1,.9-6.68l6.42-36.21h8.86Z" transform="translate(-2.25)"/><path class="cls-4" d="M330.05,164.63a22.25,22.25,0,0,0-.45,3.72c0,2.7,1.92,3.34,6.1,2.76l-1,5.85a29.24,29.24,0,0,1-6.29.64c-5.65,0-8.09-1.86-8.09-5.85a33.62,33.62,0,0,1,.77-6.1l3-16.82h-4.88l1-5.84h4.88l1.48-8.41h8.8L333.9,143h6.74l-1,5.84h-6.74Z" transform="translate(-2.25)"/><path class="cls-4" d="M375.25,176.89h-8.86l1-5.26-3.4,3.78a15.05,15.05,0,0,1-8.67,2.38c-6.93,0-10.34-3.6-10.34-8.8a33.68,33.68,0,0,1,.77-6.8l3.54-19.46h8.86l-3.28,17.92a33.22,33.22,0,0,0-.64,5.58c0,3.15,1.41,5.33,5.46,5.27,4.43-.07,8.34-3.79,10.08-13.29l2.69-15.48h8.8Z" transform="translate(-2.25)"/><path class="cls-4" d="M412.68,142.15l-1.28,7.13c-5.91-.58-11.3,1.67-13.16,11.94l-2.76,15.67h-8.86l6-34h8.86l-1.09,6.23,3.66-4.88a10.27,10.27,0,0,1,6.23-2.31A9.56,9.56,0,0,1,412.68,142.15Z" transform="translate(-2.25)"/><path class="cls-4" d="M45.72,228.58c0,12.27-7.64,23.7-23.18,25.17a55.82,55.82,0,0,1-5.72.2H2.25l7.83-44.31h14a44.06,44.06,0,0,1,5.91.26C38.78,210.8,45.72,216.64,45.72,228.58Zm-9.51.26c0-7.83-3.72-11.43-9-12.07-1.41-.13-2.63-.19-4.43-.19h-5L12.33,247h5.2c1.8,0,3.08,0,4.56-.13C31.91,245.6,36.21,237.64,36.21,228.84Z" transform="translate(-2.25)"/><path class="cls-4" d="M83.28,227.94a37.56,37.56,0,0,1-.83,6.42l-1.93,10.92a65.24,65.24,0,0,0-.9,8.67H71l.2-5-2.25,3.4a14,14,0,0,1-8.67,2.5c-5.14,0-9.5-2.88-9.5-9,0-8.74,9.05-13.55,23.18-12.72l.06-.51a21.86,21.86,0,0,0,.39-3.66c0-2.12-1.16-3.85-4.31-3.85-4,0-6.22,2-7.12,5.78l-8.61.06c1.48-7.71,8.16-12.07,16.51-12.07C79.81,218.89,83.28,222.68,83.28,227.94ZM72.37,241.36l.51-2.89C65.69,237.7,60,239.82,60,244.7c0,2.63,1.8,3.92,4.49,3.92C67.74,248.62,71.6,245.86,72.37,241.36Z" transform="translate(-2.25)"/><path class="cls-4" d="M126.05,227.62a34.71,34.71,0,0,1-.84,6.81L121.74,254h-8.86L116.09,236a35.1,35.1,0,0,0,.71-5.58c0-3.15-1.48-5.33-5.52-5.33-4.43.06-8.35,3.85-10,13.35L98.56,254H89.7l6-34.16h8.8l-.9,5.2,3.34-3.73a15.24,15.24,0,0,1,8.66-2.37C122.64,218.89,126.05,222.48,126.05,227.62Z" transform="translate(-2.25)"/><path class="cls-4" d="M188.2,227.24a35.17,35.17,0,0,1-.77,6.35L183.84,254H175l3.15-17.79a40.72,40.72,0,0,0,.71-6.16c0-3.15-1.61-4.88-4.63-4.88-3.59,0-7.12,4.36-8.34,11.1l-.07.2L162.71,254h-8.8L157,236.16a37,37,0,0,0,.77-6.16c0-3.15-1.67-4.88-4.82-4.88-3.66,0-7,4.3-8.22,11.3L141.65,254h-8.86l6-34.16h8.79l-.83,4.88,3.14-3.79a14.21,14.21,0,0,1,7.71-2c5.39,0,8.41,2.63,9.18,6.23l3.53-4a12.78,12.78,0,0,1,8-2.25C185.18,218.89,188.2,222.61,188.2,227.24Z" transform="translate(-2.25)"/><path class="cls-4" d="M227.05,227.94a37.56,37.56,0,0,1-.83,6.42l-1.93,10.92a65.24,65.24,0,0,0-.9,8.67h-8.67l.19-5-2.24,3.4a14,14,0,0,1-8.67,2.5c-5.14,0-9.5-2.88-9.5-9,0-8.74,9.05-13.55,23.18-12.72l.06-.51a21.86,21.86,0,0,0,.39-3.66c0-2.12-1.16-3.85-4.31-3.85-4,0-6.23,2-7.12,5.78l-8.61.06c1.48-7.71,8.16-12.07,16.5-12.07C223.58,218.89,227.05,222.68,227.05,227.94Zm-10.92,13.42.52-2.89c-7.19-.77-12.84,1.35-12.84,6.23,0,2.63,1.79,3.92,4.49,3.92C211.51,248.62,215.36,245.86,216.13,241.36Z" transform="translate(-2.25)"/><path class="cls-4" d="M259.54,219.21l-1.28,7.13c-5.91-.58-11.3,1.67-13.17,11.94L242.33,254h-8.86l6-34h8.86l-1.09,6.22,3.66-4.88A10.29,10.29,0,0,1,257.1,219,9.61,9.61,0,0,1,259.54,219.21Z" transform="translate(-2.25)"/><path class="cls-4" d="M294.79,254H284.07l-8.92-13.81-3.73,3.28L269.56,254H260.7l8.34-47.2h8.87l-5,28.45,16.44-15.41H300l-17.91,16Z" transform="translate(-2.25)"/></g></g></svg>