<svg xmlns="http://www.w3.org/2000/svg" viewBox="0 0 197 266.01"><defs><style>.cls-1{fill:#00995e;}.cls-2{fill:#5c5049;}.cls-3{fill:#7f695f;}</style></defs><g id="Layer_2" data-name="Layer 2"><g id="BOARD"><path class="cls-1" d="M92.84,157.16c0-17.9,13.23-35,48.32-40.88-26,9.15-45.52,36.08-29.65,36.76,37.21,1.61,40.44-39.75,66.94-43-11.89-11.34-62.58-8.94-79.36,12,8.6-37,53.81-67,91.32-70.2-17.06-1.26-35.52.6-44.59,6.62C160.17,48,158.55,17.32,137.1,0c3.85,20.64-29.95,37.43-11.85,59.44,10-5,16.57-25.29,14.82-33.79,8.73,43.61-12.88,30.29-38.59,62.57C100,72.11,80.93,29.09,23,29.09c14.73,19.15,16.14,72.65,54.51,72.65C79,96.07,82,77,46.4,43c76.45,47.11,25.09,69.12,30.26,121.61a45.56,45.56,0,0,0,10.75,23.71,92.8,92.8,0,0,0,19.28,2c1.32,0,2.63,0,3.94-.09C100.2,181.8,92.84,169.64,92.84,157.16Z"/><path class="cls-2" d="M96.18,202.88c27.75-3.88,56.17-5.86,84.19-4.36,1.5.08,6.31.52,12.62,1.2a101.21,101.21,0,0,0,4-14.23c-33.51.22-66.86-6.37-100.82-1.94C68.43,187.43,40,189.41,12,187.91c-1.45-.08-6-.49-12-1.13A100,100,0,0,0,4.22,201C34.75,201.8,65.21,206.92,96.18,202.88Z"/><path class="cls-3" d="M176.2,229.16A100.06,100.06,0,0,0,184.74,217c-3.39.22-6.78.39-10.17.53-28.52,1.14-57-1.84-85.24-5.53-26.63-3.16-51.65,3.85-77.87,4.13a100.15,100.15,0,0,0,7.8,11.43c28-1,56,2,83.77,5.56C128.07,236.14,151.68,230.13,176.2,229.16Z"/><path class="cls-2" d="M96.18,242.33a485.08,485.08,0,0,1-56.56,4.76,100.63,100.63,0,0,0,123-4.28C140.6,241.26,118.52,239.41,96.18,242.33Z"/></g></g></svg>