<svg xmlns="http://www.w3.org/2000/svg" viewBox="0 0 30.14 30.72"><defs><style>.cls-1{fill:#00995e;fill-rule:evenodd;}</style></defs><g id="Layer_2" data-name="Layer 2"><g id="GUIDE"><path class="cls-1" d="M4.81.45A7,7,0,0,0,2,1.74C-1.25,4.55.1,7.37,1.62,10.63A37.72,37.72,0,0,0,9.78,22a30.41,30.41,0,0,0,2.78,2.44,42.06,42.06,0,0,0,7.6,4.78A20.67,20.67,0,0,0,23,30.49a3.87,3.87,0,0,0,3.31-.32c1.61-.81,3.45-2.63,3.76-4.45A2.76,2.76,0,0,0,28.77,23l-1.16-.91a32.53,32.53,0,0,0-3.7-2.53c-3.19-1.54-4,1.64-5.21,2.22-1.68.79-4.86-1.61-5.72-2.28A13.77,13.77,0,0,1,9.33,14.9c-2.8-5.36,4.2-3.65,1.7-8.38A24.45,24.45,0,0,0,9.42,4c-.15-.2-.3-.35-.44-.56a6.52,6.52,0,0,0-.48-.59C7.58,1.75,6.53.19,4.81.45ZM17.88,7.37C19.5,7.11,21,8.49,21.6,9.24a5,5,0,0,1,1,1.89c.18.79.21,2-.72,2s-.79-1.18-1-1.91c-.62-2-2.33-2.06-3.3-2.38-.76-.25-.74-1.32.36-1.5ZM16.4,3.68c.8-.36,3.53.55,4.22.86a9.35,9.35,0,0,1,5.52,7.53c.06.85.19,2-.45,2.16-1.37.44-.89-1-1.6-3.48-.85-3-2.52-4.22-5.4-5-1.43-.41-2.73-.24-2.77-1.16a.79.79,0,0,1,.48-.86Zm-1-3.63a13.27,13.27,0,0,1,3.46.27A14.45,14.45,0,0,1,26.09,4.6L27,5.65a13.79,13.79,0,0,1,2.82,6.79c.08.62.08,1.23.1,1.86s.06,1.29-.59,1.4-1-.27-1-.93a18.24,18.24,0,0,0-.91-4.84,11.44,11.44,0,0,0-2.9-4.79,14.58,14.58,0,0,0-8-3.47c-.53-.07-1.26,0-1.52-.4A.83.83,0,0,1,15.38.05Z"/></g></g></svg>