<svg xmlns="http://www.w3.org/2000/svg" viewBox="0 0 61.44 61.44"><defs><style>.cls-1{fill:#00b6a0;}.cls-2{fill:#fff;fill-rule:evenodd;}</style></defs><g id="Layer_2" data-name="Layer 2"><g id="BOARD"><circle class="cls-1" cx="30.72" cy="30.72" r="30.72" transform="translate(-6.24 53.56) rotate(-76.72)"/><path class="cls-2" d="M17.89,23.54a.61.61,0,0,1,.66-.67c.26,0,10.21,6.31,10.81,6.68l1.56,1c.49-.33,1-.61,1.5-1,1-.66,10.35-6.69,10.6-6.69a.62.62,0,0,1,.67.67c0,.45-.87.89-1.43,1.23-3.53,2.16-7.06,4.5-10.56,6.74-.2.13-.59.43-.89.38s-10.46-6.56-12.3-7.64c-.28-.16-.62-.31-.62-.71ZM15.36,22V39.56A1.67,1.67,0,0,0,17,41.29h27.4a1.67,1.67,0,0,0,1.66-1.73V22a1.69,1.69,0,0,0-1.66-1.86H17A1.67,1.67,0,0,0,15.36,22Z"/></g></g></svg>