<svg xmlns="http://www.w3.org/2000/svg" viewBox="0 0 61.44 61.44"><defs><style>.cls-1{fill:#00623a;}.cls-2{fill:#fff;fill-rule:evenodd;}</style></defs><g id="Layer_2" data-name="Layer 2"><g id="GUIDE"><circle class="cls-1" cx="30.72" cy="30.72" r="30.72" transform="translate(-6.24 53.56) rotate(-76.72)"/><path class="cls-2" d="M20.46,15.81a7,7,0,0,0-2.83,1.29c-3.24,2.81-1.88,5.63-.36,8.89a37.72,37.72,0,0,0,8.16,11.36,29.12,29.12,0,0,0,2.78,2.44,42.33,42.33,0,0,0,7.59,4.78,21.34,21.34,0,0,0,2.88,1.28A3.87,3.87,0,0,0,42,45.53c1.61-.81,3.45-2.63,3.76-4.45a2.76,2.76,0,0,0-1.33-2.74l-1.16-.91a34,34,0,0,0-3.71-2.53c-3.19-1.54-4,1.64-5.21,2.22-1.67.8-4.85-1.6-5.71-2.28A13.42,13.42,0,0,1,25,30.26c-2.8-5.36,4.19-3.65,1.69-8.38a22.84,22.84,0,0,0-1.6-2.54c-.15-.2-.3-.35-.44-.55a5.49,5.49,0,0,0-.48-.6c-.93-1.08-2-2.64-3.69-2.38Zm13.07,6.92c1.61-.26,3.12,1.12,3.72,1.88a4.69,4.69,0,0,1,1,1.88c.19.79.22,2-.71,2s-.79-1.18-1-1.91c-.62-2-2.33-2.06-3.3-2.38-.76-.25-.74-1.32.36-1.5ZM32.05,19c.8-.36,3.53.55,4.22.86a9.38,9.38,0,0,1,5.52,7.53c.06.85.19,2-.45,2.16-1.38.45-.89-.95-1.61-3.48-.84-3-2.51-4.22-5.39-5.05-1.43-.41-2.74-.24-2.77-1.16a.78.78,0,0,1,.48-.86Zm-1-3.63a13.21,13.21,0,0,1,3.46.27A14.44,14.44,0,0,1,41.74,20L42.61,21a13.88,13.88,0,0,1,2.82,6.79c.08.62.07,1.23.09,1.86s.07,1.29-.58,1.4-1-.27-1-.93A18.24,18.24,0,0,0,43,25.29a11.44,11.44,0,0,0-2.9-4.79A14.58,14.58,0,0,0,32.06,17c-.52-.07-1.25,0-1.51-.4A.83.83,0,0,1,31,15.41Z"/></g></g></svg>