<svg xmlns="http://www.w3.org/2000/svg" viewBox="0 0 61.44 61.44"><defs><style>.cls-1{fill:#005c43;}.cls-2{fill:#fff;fill-rule:evenodd;}</style></defs><g id="Layer_2" data-name="Layer 2"><g id="BOARD"><circle class="cls-1" cx="30.72" cy="30.72" r="30.72" transform="translate(-6.24 53.56) rotate(-76.72)"/><path class="cls-2" d="M30.34,15.36c-3.82,0-4.37,0-5.95.09a11.39,11.39,0,0,0-3.73.72,7.84,7.84,0,0,0-4.49,4.49,11.39,11.39,0,0,0-.72,3.73c-.07,1.64-.09,2.16-.09,6.33s0,4.69.09,6.33a11.39,11.39,0,0,0,.72,3.73,7.84,7.84,0,0,0,4.49,4.49,11.39,11.39,0,0,0,3.73.72c1.64.07,2.16.09,6.33.09s4.7,0,6.33-.09a11.39,11.39,0,0,0,3.73-.72,7.84,7.84,0,0,0,4.49-4.49A11.39,11.39,0,0,0,46,37.05c.07-1.58.09-2.12.09-5.95v-.76c0-3.82,0-4.37-.09-5.95a11.39,11.39,0,0,0-.72-3.73,7.84,7.84,0,0,0-4.49-4.49,11.39,11.39,0,0,0-3.73-.72c-1.58-.07-2.12-.09-5.95-.09Zm10.42,7.16a1.84,1.84,0,1,1-1.84-1.84,1.84,1.84,0,0,1,1.84,1.84Zm-10,13.32a5.12,5.12,0,1,1,5.12-5.12,5.12,5.12,0,0,1-5.12,5.12Zm0-13a7.89,7.89,0,1,1-7.89,7.89,7.89,7.89,0,0,1,7.89-7.89Zm0-4.7c4.1,0,4.59,0,6.21.09a8.57,8.57,0,0,1,2.85.53,4.76,4.76,0,0,1,1.77,1.15,4.62,4.62,0,0,1,1.14,1.76,8.57,8.57,0,0,1,.53,2.85c.08,1.62.09,2.11.09,6.21s0,4.59-.09,6.21a8.57,8.57,0,0,1-.53,2.85,5,5,0,0,1-2.91,2.91,8.57,8.57,0,0,1-2.85.53c-1.62.08-2.11.09-6.21.09s-4.59,0-6.21-.09a8.57,8.57,0,0,1-2.85-.53,5,5,0,0,1-2.91-2.91,8.57,8.57,0,0,1-.53-2.85c-.08-1.62-.09-2.11-.09-6.21s0-4.59.09-6.21a8.57,8.57,0,0,1,.53-2.85A4.53,4.53,0,0,1,19.9,19.9a4.64,4.64,0,0,1,1.76-1.15,8.57,8.57,0,0,1,2.85-.53C26.13,18.14,26.62,18.13,30.72,18.13Z"/></g></g></svg>